Coordinates
version=1
nRows=24
nColumns=19
inDegrees=yes

Units are S.I. units (second, meters, Newtons, ...)
If the header above contains a line with 'inDegrees', this indicates whether rotational values are in degrees (yes) or radians (no).

endheader
time	pelvis_tilt	pelvis_list	pelvis_rotation	pelvis_tx	pelvis_ty	pelvis_tz	hip_flexion_r	hip_adduction_r	hip_rotation_r	knee_angle_r	knee_angle_r_beta	ankle_angle_r	hip_flexion_l	hip_adduction_l	hip_rotation_l	knee_angle_l	knee_angle_l_beta	ankle_angle_l
     17.10000000	     -4.38552225	      7.32803738	      0.75235033	      2.12870277	      0.99974414	      1.04280213	    -17.02484034	    -11.96289353	    -16.86276574	     60.06969823	      1.04841401	    -16.21851190	     28.31852175	      9.82652545	     -6.83506563	      8.94268303	      0.15607926	     -3.74507121
     17.10666667	     -3.70818653	      7.90928978	      0.93311646	      2.12882435	      0.99568166	      1.04253254	    -16.58754122	    -12.63170188	    -16.17303305	     63.91341598	      1.11549955	    -16.11061362	     27.70449208	     10.33444945	     -7.93611315	     10.68872692	      0.18655348	     -3.60894262
     17.11333333	     -3.76778852	      8.18161186	      1.16406306	      2.12861578	      0.99037589	      1.04219577	    -15.10255256	    -12.93084379	    -15.19336549	     67.95290627	      1.18600195	    -16.05083376	     28.13685380	     10.44332303	     -8.99033548	     13.23332552	      0.23096510	     -3.17538622
     17.12000000	     -2.95644956	      8.86271391	      1.35557017	      2.12848692	      0.98565761	      1.04208741	    -14.68907160	    -13.67790310	    -14.61840867	     71.79745689	      1.25310202	    -15.86593058	     27.47328081	     10.97751244	     -9.91858985	     15.68217375	      0.27370557	     -2.58180838
     17.12666667	     -3.16238491	      9.10356818	      1.60115404	      2.12787745	      0.97950423	      1.04190568	    -12.83512112	    -13.86090519	    -13.55101290	     75.86992131	      1.32417993	    -15.63467407	     28.18359083	     10.98592013	    -10.72151837	     18.87949344	      0.32950932	     -1.65382171
     17.13333333	     -3.01955441	      9.51271823	      1.83961758	      2.12715277	      0.97352650	      1.04189874	    -11.36961298	    -14.24595431	    -12.70096609	     79.83463037	      1.39337716	    -15.27443408	     28.44426428	     11.18956785	    -11.33247492	     22.06674697	      0.38513739	     -0.41809745
     17.14000000	     -2.98365747	      9.88302363	      2.13236584	      2.12616059	      0.96733124	      1.04183092	     -9.68859331	    -14.58094759	    -11.85663591	     83.76706562	      1.46201110	    -14.86091421	     28.82877564	     11.40113504	    -11.70836121	     25.37620038	      0.44289825	      1.14730054
     17.14666667	     -2.96460712	     10.19711368	      2.39950903	      2.12485101	      0.96114450	      1.04181242	     -7.85832435	    -14.85203263	    -10.95165585	     87.63990773	      1.52960495	    -14.38887917	     29.23346534	     11.57362730	    -11.95047668	     28.75429868	      0.50185719	      3.01148165
     17.15333333	     -3.13813304	     10.46771215	      2.75733798	      2.12328062	      0.95485274	      1.04168760	     -5.72151112	    -15.10686501	    -10.09769890	     91.44751556	      1.59606024	    -13.87900309	     29.81201998	     11.79240620	    -11.95082138	     32.12225583	      0.56063913	      5.11273195
     17.16000000	     -3.32327268	     10.67135128	      3.08414479	      2.12140216	      0.94881595	      1.04159604	     -3.42519165	    -15.28608703	     -9.16324776	     95.13763922	      1.66046505	    -13.35789623	     30.33811445	     11.97886494	    -11.83029385	     35.39331017	      0.61772980	      7.40822610
     17.16666667	     -2.80537605	     11.14478451	      3.42000013	      2.11957279	      0.94390672	      1.04147793	     -1.98383164	    -15.82814293	     -8.49611801	     98.51043770	      1.71933149	    -12.80268881	     29.89462484	     12.52752131	    -11.57016219	     38.32165727	      0.66883909	      9.90818964
     17.17333333	     -3.86013684	     10.87050362	      3.68781936	      2.11693069	      0.93767288	      1.04143594	      1.77946879	    -15.43692125	     -7.11937371	    102.06245330	      1.78132585	    -12.37921111	     31.23298941	     12.27553133	    -11.22940108	     41.35813524	      0.72183563	     12.23064633
     17.18000000	     -4.13109571	     10.87571225	      3.87655804	      2.11442308	      0.93280479	      1.04147921	      4.62197445	    -15.39339061	     -5.94979113	    105.22878841	      1.83658883	    -11.93373751	     31.45079129	     12.32972658	    -10.87184449	     43.92342171	      0.76660833	     14.59554303
     17.18666667	     -4.46877242	     10.80999826	      4.05184566	      2.11177099	      0.92840179	      1.04150328	      7.66295309	    -15.26861962	     -4.75952320	    108.15825173	      1.88771761	    -11.52432656	     31.54348946	     12.35544080	    -10.39890058	     46.13588145	      0.80522303	     16.87098685
     17.19333333	     -4.68483777	     10.70525033	      4.09381950	      2.10911732	      0.92468380	      1.04170540	     10.69108804	    -15.06227808	     -3.49712114	    110.79829018	      1.93379497	    -11.04550380	     31.29244215	     12.27752071	    -10.00253527	     47.97900218	      0.83739156	     18.96390939
     17.20000000	     -5.06315564	     10.49773364	      4.17964732	      2.10641883	      0.92138211	      1.04179672	     13.97888889	    -14.75403764	     -2.31189125	    113.13885551	      1.97464554	    -10.69450756	     31.00550813	     12.16674128	     -9.44187565	     49.45299538	      0.86311759	     20.89748445
     17.20666667	     -5.23908198	     10.28439217	      4.09559148	      2.10382380	      0.91891922	      1.04208341	     17.11466541	    -14.37828672	     -1.08616898	    115.12268881	      2.00926996	    -10.25575382	     30.26967177	     11.95213991	     -9.03377581	     50.52086610	      0.88175545	     22.60365687
     17.21333333	     -5.42783576	     10.01656227	      4.02657504	      2.10141808	      0.91704944	      1.04228458	     20.24014097	    -13.96570957	     -0.01800970	    116.72699337	      2.03727036	     -9.75378051	     29.32308223	     11.71197564	     -8.56437651	     51.21672166	      0.89390042	     24.10580914
     17.22000000	     -5.27690193	      9.75636979	      3.82861032	      2.09933553	      0.91628458	      1.04262311	     22.93679878	    -13.51869883	      0.96030738	    117.88715438	      2.05751899	     -9.14681290	     27.76007444	     11.40861100	     -8.20967270	     51.48805175	      0.89863603	     25.39271193
     17.22666667	     -5.38682595	      9.40283382	      3.70671590	      2.09743164	      0.91586032	      1.04271257	     25.86106984	    -13.04199229	      1.72974483	    118.66517229	      2.07109796	     -8.57421402	     26.30714780	     11.09172820	     -7.73827654	     51.44776966	      0.89793297	     26.42881709
     17.23333333	     -5.18866713	      9.05004710	      3.49461718	      2.09591996	      0.91651415	      1.04283745	     28.30555638	    -12.56684027	      2.33280189	    118.99104815	      2.07678557	     -7.83605712	     24.30161416	     10.73736290	     -7.34605370	     51.02551210	      0.89056319	     27.24374558
     17.24000000	     -5.08923914	      8.71572790	      3.24666048	      2.09457158	      0.91758015	      1.04291354	     30.78314227	    -12.13277980	      2.84553663	    118.98522590	      2.07668395	     -7.03904085	     22.25994453	     10.41808204	     -6.99431509	     50.31408662	      0.87814647	     27.82366468
     17.24666667	     -5.05819044	      8.38360371	      2.96102889	      2.09344609	      0.91912751	      1.04296124	     33.22102702	    -11.70930226	      3.24354287	    118.63454335	      2.07056339	     -6.16215421	     20.16232728	     10.11517675	     -6.68432725	     49.33553490	      0.86106752	     28.15069964
     17.25333333	     -5.20726544	      7.89695510	      2.84141836	      2.09266551	      0.92114514	      1.04275376	     35.61628770	    -11.26025573	      3.24228773	    117.86501215	      2.05713253	     -5.29791112	     18.15937408	      9.74082015	     -6.16065730	     48.17861290	      0.84087542	     28.19539817
